<svg viewBox="-1000 -707 2000 1404" fill="none" xmlns="http://www.w3.org/2000/svg">
<defs>
    <linearGradient id="gradient_whitefall" gradientTransform="rotate(90)">
        <stop offset="51%" stop-color="white" />
        <stop offset="77%" stop-color="white" stop-opacity="0.05" />
    </linearGradient>
    <path id="libra_c_89e968097189" d="M 140 0 c 0 33 -50 66 -140 66 c -90 0 -140 -33 -140 -66"
        stroke="#EEBB55" stroke-width="12" opacity="0"
        stroke-linejoin="round" stroke-linecap="round" />
    <filter id="blurMe">
        <feGaussianBlur in="SourceGraphic" stdDeviation="37" />
    </filter>
    <rect id="contentboxsizer" x="-874" y="-581"
    width="1748" height="1162"  />
    <mask id="contentboxmask">
        <use href="#contentboxsizer" fill="white" />
    </mask>
    <ellipse id="bgtexture-underoval1" cx="0" cy="660" rx="950" ry="660" stroke="#708280" stroke-width="4"  />
    <mask id="mask_gradient_whitefall">
        <rect x="-1000" y="-1000" width="2000" height="2000" fill="black" />
        <rect x="-1000" y="-1000" width="2000" height="2000" fill="url(#gradient_whitefall)" />
    </mask>
<polygon   stroke-width="3"     id="mini_reusable_star_c1"     stroke-linejoin="round"     fill="#FFF1C6"     stroke="#142c44"   points="0 15 16.46 22.65 14.27 4.64 26.63 -8.65 8.82 -12.14 0 -28 -8.82 -12.14 -26.63 -8.65 -14.27 4.64 -16.46 22.65" />
</defs>


<rect x="-1000" y="-707" width="2000" height="1404" fill="#FAFAFA" opacity="0.01" />
<rect x="-1000" y="-707" width="2000" height="1404" fill="none" mask="url(#contentboxmask)" />





<g mask="url(#contentboxmask)">
    <use href="#contentboxsizer" fill="#798f89" stroke="none" />
    <use transform="translate(0,-360) rotate(0)" href="#bgtexture-underoval1" />
<use transform="translate(0,-360) rotate(2)" href="#bgtexture-underoval1" />
<use transform="translate(0,-360) rotate(4)" href="#bgtexture-underoval1" />
<use transform="translate(0,-360) rotate(6)" href="#bgtexture-underoval1" />
<use transform="translate(0,-360) rotate(8)" href="#bgtexture-underoval1" />
<use transform="translate(0,-360) rotate(10)" href="#bgtexture-underoval1" />
<use transform="translate(0,-360) rotate(12)" href="#bgtexture-underoval1" />
<use transform="translate(0,-360) rotate(14)" href="#bgtexture-underoval1" />
<use transform="translate(0,-360) rotate(16)" href="#bgtexture-underoval1" />
<use transform="translate(0,-360) rotate(18)" href="#bgtexture-underoval1" />
<use transform="translate(0,-360) rotate(20)" href="#bgtexture-underoval1" />
<use transform="translate(0,-360) rotate(22)" href="#bgtexture-underoval1" />
<use transform="translate(0,-360) rotate(24)" href="#bgtexture-underoval1" />
<use transform="translate(0,-360) rotate(26)" href="#bgtexture-underoval1" />
<use transform="translate(0,-360) rotate(28)" href="#bgtexture-underoval1" />
<use transform="translate(0,-360) rotate(30)" href="#bgtexture-underoval1" />
<use transform="translate(0,-360) rotate(32)" href="#bgtexture-underoval1" />
<use transform="translate(0,-360) rotate(34)" href="#bgtexture-underoval1" />
<use transform="translate(0,-360) rotate(36)" href="#bgtexture-underoval1" />
<use transform="translate(0,-360) rotate(38)" href="#bgtexture-underoval1" />
<use transform="translate(0,-360) rotate(40)" href="#bgtexture-underoval1" />
<use transform="translate(0,-360) rotate(42)" href="#bgtexture-underoval1" />
<use transform="translate(0,-360) rotate(44)" href="#bgtexture-underoval1" />
<use transform="translate(0,-360) rotate(46)" href="#bgtexture-underoval1" />
<use transform="translate(0,-360) rotate(48)" href="#bgtexture-underoval1" />
<use transform="translate(0,-360) rotate(50)" href="#bgtexture-underoval1" />
<use transform="translate(0,-360) rotate(52)" href="#bgtexture-underoval1" />
<use transform="translate(0,-360) rotate(54)" href="#bgtexture-underoval1" />
<use transform="translate(0,-360) rotate(56)" href="#bgtexture-underoval1" />
<use transform="translate(0,-360) rotate(58)" href="#bgtexture-underoval1" />
<use transform="translate(0,-360) rotate(60)" href="#bgtexture-underoval1" />
<use transform="translate(0,-360) rotate(62)" href="#bgtexture-underoval1" />
<use transform="translate(0,-360) rotate(64)" href="#bgtexture-underoval1" />
<use transform="translate(0,-360) rotate(66)" href="#bgtexture-underoval1" />
<use transform="translate(0,-360) rotate(68)" href="#bgtexture-underoval1" />
<use transform="translate(0,-360) rotate(70)" href="#bgtexture-underoval1" />
<use transform="translate(0,-360) rotate(72)" href="#bgtexture-underoval1" />
<use transform="translate(0,-360) rotate(74)" href="#bgtexture-underoval1" />
<use transform="translate(0,-360) rotate(76)" href="#bgtexture-underoval1" />
<use transform="translate(0,-360) rotate(78)" href="#bgtexture-underoval1" />
<use transform="translate(0,-360) rotate(80)" href="#bgtexture-underoval1" />
<use transform="translate(0,-360) rotate(82)" href="#bgtexture-underoval1" />
<use transform="translate(0,-360) rotate(84)" href="#bgtexture-underoval1" />
<use transform="translate(0,-360) rotate(86)" href="#bgtexture-underoval1" />
<use transform="translate(0,-360) rotate(88)" href="#bgtexture-underoval1" />
<use transform="translate(0,-360) rotate(90)" href="#bgtexture-underoval1" />
<use transform="translate(0,-360) rotate(92)" href="#bgtexture-underoval1" />
<use transform="translate(0,-360) rotate(94)" href="#bgtexture-underoval1" />
<use transform="translate(0,-360) rotate(96)" href="#bgtexture-underoval1" />
<use transform="translate(0,-360) rotate(98)" href="#bgtexture-underoval1" />
<use transform="translate(0,-360) rotate(100)" href="#bgtexture-underoval1" />
<use transform="translate(0,-360) rotate(102)" href="#bgtexture-underoval1" />
<use transform="translate(0,-360) rotate(104)" href="#bgtexture-underoval1" />
<use transform="translate(0,-360) rotate(106)" href="#bgtexture-underoval1" />
<use transform="translate(0,-360) rotate(108)" href="#bgtexture-underoval1" />
<use transform="translate(0,-360) rotate(110)" href="#bgtexture-underoval1" />
<use transform="translate(0,-360) rotate(112)" href="#bgtexture-underoval1" />
<use transform="translate(0,-360) rotate(114)" href="#bgtexture-underoval1" />
<use transform="translate(0,-360) rotate(116)" href="#bgtexture-underoval1" />
<use transform="translate(0,-360) rotate(118)" href="#bgtexture-underoval1" />
<use transform="translate(0,-360) rotate(120)" href="#bgtexture-underoval1" />
<use transform="translate(0,-360) rotate(122)" href="#bgtexture-underoval1" />
<use transform="translate(0,-360) rotate(124)" href="#bgtexture-underoval1" />
<use transform="translate(0,-360) rotate(126)" href="#bgtexture-underoval1" />
<use transform="translate(0,-360) rotate(128)" href="#bgtexture-underoval1" />
<use transform="translate(0,-360) rotate(130)" href="#bgtexture-underoval1" />
<use transform="translate(0,-360) rotate(132)" href="#bgtexture-underoval1" />
<use transform="translate(0,-360) rotate(134)" href="#bgtexture-underoval1" />
<use transform="translate(0,-360) rotate(136)" href="#bgtexture-underoval1" />
<use transform="translate(0,-360) rotate(138)" href="#bgtexture-underoval1" />
<use transform="translate(0,-360) rotate(140)" href="#bgtexture-underoval1" />
<use transform="translate(0,-360) rotate(142)" href="#bgtexture-underoval1" />
<use transform="translate(0,-360) rotate(144)" href="#bgtexture-underoval1" />
<use transform="translate(0,-360) rotate(146)" href="#bgtexture-underoval1" />
<use transform="translate(0,-360) rotate(148)" href="#bgtexture-underoval1" />
<use transform="translate(0,-360) rotate(150)" href="#bgtexture-underoval1" />
<use transform="translate(0,-360) rotate(152)" href="#bgtexture-underoval1" />
<use transform="translate(0,-360) rotate(154)" href="#bgtexture-underoval1" />
<use transform="translate(0,-360) rotate(156)" href="#bgtexture-underoval1" />
<use transform="translate(0,-360) rotate(158)" href="#bgtexture-underoval1" />
<use transform="translate(0,-360) rotate(160)" href="#bgtexture-underoval1" />
<use transform="translate(0,-360) rotate(162)" href="#bgtexture-underoval1" />
<use transform="translate(0,-360) rotate(164)" href="#bgtexture-underoval1" />
<use transform="translate(0,-360) rotate(166)" href="#bgtexture-underoval1" />
<use transform="translate(0,-360) rotate(168)" href="#bgtexture-underoval1" />
<use transform="translate(0,-360) rotate(170)" href="#bgtexture-underoval1" />
<use transform="translate(0,-360) rotate(172)" href="#bgtexture-underoval1" />
<use transform="translate(0,-360) rotate(174)" href="#bgtexture-underoval1" />
<use transform="translate(0,-360) rotate(176)" href="#bgtexture-underoval1" />
<use transform="translate(0,-360) rotate(178)" href="#bgtexture-underoval1" />
<use transform="translate(0,-360) rotate(180)" href="#bgtexture-underoval1" />
<use transform="translate(0,-360) rotate(182)" href="#bgtexture-underoval1" />
<use transform="translate(0,-360) rotate(184)" href="#bgtexture-underoval1" />
<use transform="translate(0,-360) rotate(186)" href="#bgtexture-underoval1" />
<use transform="translate(0,-360) rotate(188)" href="#bgtexture-underoval1" />
<use transform="translate(0,-360) rotate(190)" href="#bgtexture-underoval1" />
<use transform="translate(0,-360) rotate(192)" href="#bgtexture-underoval1" />
<use transform="translate(0,-360) rotate(194)" href="#bgtexture-underoval1" />
<use transform="translate(0,-360) rotate(196)" href="#bgtexture-underoval1" />
<use transform="translate(0,-360) rotate(198)" href="#bgtexture-underoval1" />
<use transform="translate(0,-360) rotate(200)" href="#bgtexture-underoval1" />
<use transform="translate(0,-360) rotate(202)" href="#bgtexture-underoval1" />
<use transform="translate(0,-360) rotate(204)" href="#bgtexture-underoval1" />
<use transform="translate(0,-360) rotate(206)" href="#bgtexture-underoval1" />
<use transform="translate(0,-360) rotate(208)" href="#bgtexture-underoval1" />
<use transform="translate(0,-360) rotate(210)" href="#bgtexture-underoval1" />
<use transform="translate(0,-360) rotate(212)" href="#bgtexture-underoval1" />
<use transform="translate(0,-360) rotate(214)" href="#bgtexture-underoval1" />
<use transform="translate(0,-360) rotate(216)" href="#bgtexture-underoval1" />
<use transform="translate(0,-360) rotate(218)" href="#bgtexture-underoval1" />
<use transform="translate(0,-360) rotate(220)" href="#bgtexture-underoval1" />
<use transform="translate(0,-360) rotate(222)" href="#bgtexture-underoval1" />
<use transform="translate(0,-360) rotate(224)" href="#bgtexture-underoval1" />
<use transform="translate(0,-360) rotate(226)" href="#bgtexture-underoval1" />
<use transform="translate(0,-360) rotate(228)" href="#bgtexture-underoval1" />
<use transform="translate(0,-360) rotate(230)" href="#bgtexture-underoval1" />
<use transform="translate(0,-360) rotate(232)" href="#bgtexture-underoval1" />
<use transform="translate(0,-360) rotate(234)" href="#bgtexture-underoval1" />
<use transform="translate(0,-360) rotate(236)" href="#bgtexture-underoval1" />
<use transform="translate(0,-360) rotate(238)" href="#bgtexture-underoval1" />
<use transform="translate(0,-360) rotate(240)" href="#bgtexture-underoval1" />
<use transform="translate(0,-360) rotate(242)" href="#bgtexture-underoval1" />
<use transform="translate(0,-360) rotate(244)" href="#bgtexture-underoval1" />
<use transform="translate(0,-360) rotate(246)" href="#bgtexture-underoval1" />
<use transform="translate(0,-360) rotate(248)" href="#bgtexture-underoval1" />
<use transform="translate(0,-360) rotate(250)" href="#bgtexture-underoval1" />
<use transform="translate(0,-360) rotate(252)" href="#bgtexture-underoval1" />
<use transform="translate(0,-360) rotate(254)" href="#bgtexture-underoval1" />
<use transform="translate(0,-360) rotate(256)" href="#bgtexture-underoval1" />
<use transform="translate(0,-360) rotate(258)" href="#bgtexture-underoval1" />
<use transform="translate(0,-360) rotate(260)" href="#bgtexture-underoval1" />
<use transform="translate(0,-360) rotate(262)" href="#bgtexture-underoval1" />
<use transform="translate(0,-360) rotate(264)" href="#bgtexture-underoval1" />
<use transform="translate(0,-360) rotate(266)" href="#bgtexture-underoval1" />
<use transform="translate(0,-360) rotate(268)" href="#bgtexture-underoval1" />
<use transform="translate(0,-360) rotate(270)" href="#bgtexture-underoval1" />
<use transform="translate(0,-360) rotate(272)" href="#bgtexture-underoval1" />
<use transform="translate(0,-360) rotate(274)" href="#bgtexture-underoval1" />
<use transform="translate(0,-360) rotate(276)" href="#bgtexture-underoval1" />
<use transform="translate(0,-360) rotate(278)" href="#bgtexture-underoval1" />
<use transform="translate(0,-360) rotate(280)" href="#bgtexture-underoval1" />
<use transform="translate(0,-360) rotate(282)" href="#bgtexture-underoval1" />
<use transform="translate(0,-360) rotate(284)" href="#bgtexture-underoval1" />
<use transform="translate(0,-360) rotate(286)" href="#bgtexture-underoval1" />
<use transform="translate(0,-360) rotate(288)" href="#bgtexture-underoval1" />
<use transform="translate(0,-360) rotate(290)" href="#bgtexture-underoval1" />
<use transform="translate(0,-360) rotate(292)" href="#bgtexture-underoval1" />
<use transform="translate(0,-360) rotate(294)" href="#bgtexture-underoval1" />
<use transform="translate(0,-360) rotate(296)" href="#bgtexture-underoval1" />
<use transform="translate(0,-360) rotate(298)" href="#bgtexture-underoval1" />
<use transform="translate(0,-360) rotate(300)" href="#bgtexture-underoval1" />
<use transform="translate(0,-360) rotate(302)" href="#bgtexture-underoval1" />
<use transform="translate(0,-360) rotate(304)" href="#bgtexture-underoval1" />
<use transform="translate(0,-360) rotate(306)" href="#bgtexture-underoval1" />
<use transform="translate(0,-360) rotate(308)" href="#bgtexture-underoval1" />
<use transform="translate(0,-360) rotate(310)" href="#bgtexture-underoval1" />
<use transform="translate(0,-360) rotate(312)" href="#bgtexture-underoval1" />
<use transform="translate(0,-360) rotate(314)" href="#bgtexture-underoval1" />
<use transform="translate(0,-360) rotate(316)" href="#bgtexture-underoval1" />
<use transform="translate(0,-360) rotate(318)" href="#bgtexture-underoval1" />
<use transform="translate(0,-360) rotate(320)" href="#bgtexture-underoval1" />
<use transform="translate(0,-360) rotate(322)" href="#bgtexture-underoval1" />
<use transform="translate(0,-360) rotate(324)" href="#bgtexture-underoval1" />
<use transform="translate(0,-360) rotate(326)" href="#bgtexture-underoval1" />
<use transform="translate(0,-360) rotate(328)" href="#bgtexture-underoval1" />
<use transform="translate(0,-360) rotate(330)" href="#bgtexture-underoval1" />
<use transform="translate(0,-360) rotate(332)" href="#bgtexture-underoval1" />
<use transform="translate(0,-360) rotate(334)" href="#bgtexture-underoval1" />
<use transform="translate(0,-360) rotate(336)" href="#bgtexture-underoval1" />
<use transform="translate(0,-360) rotate(338)" href="#bgtexture-underoval1" />
<use transform="translate(0,-360) rotate(340)" href="#bgtexture-underoval1" />
<use transform="translate(0,-360) rotate(342)" href="#bgtexture-underoval1" />
<use transform="translate(0,-360) rotate(344)" href="#bgtexture-underoval1" />
<use transform="translate(0,-360) rotate(346)" href="#bgtexture-underoval1" />
<use transform="translate(0,-360) rotate(348)" href="#bgtexture-underoval1" />
<use transform="translate(0,-360) rotate(350)" href="#bgtexture-underoval1" />
<use transform="translate(0,-360) rotate(352)" href="#bgtexture-underoval1" />
<use transform="translate(0,-360) rotate(354)" href="#bgtexture-underoval1" />
<use transform="translate(0,-360) rotate(356)" href="#bgtexture-underoval1" />
<use transform="translate(0,-360) rotate(358)" href="#bgtexture-underoval1" />
<g mask="url(#mask_gradient_whitefall)"><path transform="translate(0,-360) rotate(0)" d="M 0,40  m 0,125
            
            M 0,294  l  0,60.00 l  0,100.6 m  0,60.00 l  0,310.5 m  0,60.00 l  0,350.7 m  0,60.00 l  0,126.3 m  0,60.00 l  0,152.5 m  0,60.00 l  0,224.2 m  0,60.00 l  0,116.5 m  0,60.00 l  0,357.9"
            stroke="#EEBB55" stroke-width="14" stroke-linecap="round" opacity="1" />
<path transform="translate(0,-360) rotate(5)" d="M 0,40  m 0,125
            l0,0.1 m0,25  l0,0.1 m0,25  l0,0.1 m0,25
            M 0,294  l  0,60.00 l  0,358.9 m  0,60.00 l  0,350.3 m  0,60.00 l  0,277.8 m  0,60.00 l  0,354.3 m  0,60.00 l  0,92.96 m  0,60.00 l  0,299.4 m  0,60.00 l  0,149.1 m  0,60.00 l  0,61.44"
            stroke="#EEBB55" stroke-width="10.21792560075827" stroke-linecap="round" opacity="1" />
<path transform="translate(0,-360) rotate(10)" d="M 0,40  m 0,125
            
            M 0,294  l  0,60.00 l  0,93.74 m  0,60.00 l  0,251.9 m  0,60.00 l  0,323.5 m  0,60.00 l  0,211.1 m  0,60.00 l  0,299.4 m  0,60.00 l  0,168.4 m  0,60.00 l  0,123.6 m  0,60.00 l  0,264.4"
            stroke="#EEBB55" stroke-width="14" stroke-linecap="round" opacity="1" />
<path transform="translate(0,-360) rotate(15)" d="M 0,40  m 0,125
            l0,0.1 m0,25  l0,0.1 m0,25  l0,0.1 m0,25
            M 0,294  l  0,60.00 l  0,179.6 m  0,60.00 l  0,282.2 m  0,60.00 l  0,202.4 m  0,60.00 l  0,186.6 m  0,60.00 l  0,112.2 m  0,60.00 l  0,150.6 m  0,60.00 l  0,299.2 m  0,60.00 l  0,155.0"
            stroke="#EEBB55" stroke-width="14" stroke-linecap="round" opacity="1" />
<path transform="translate(0,-360) rotate(20)" d="M 0,40  m 0,125
            
            M 0,294  l  0,60.00 l  0,321.7 m  0,60.00 l  0,104.7 m  0,60.00 l  0,358.2 m  0,60.00 l  0,306.6 m  0,60.00 l  0,97.55 m  0,60.00 l  0,289.1 m  0,60.00 l  0,207.2 m  0,60.00 l  0,259.1"
            stroke="#EEBB55" stroke-width="10.024770721100449" stroke-linecap="round" opacity="1" />
<path transform="translate(0,-360) rotate(25)" d="M 0,40  m 0,125
            l0,0.1 m0,25  l0,0.1 m0,25  l0,0.1 m0,25
            M 0,294  l  0,60.00 l  0,97.77 m  0,60.00 l  0,123.1 m  0,60.00 l  0,75.36 m  0,60.00 l  0,70.93 m  0,60.00 l  0,182.6 m  0,60.00 l  0,197.4 m  0,60.00 l  0,206.3 m  0,60.00 l  0,298.2"
            stroke="#EEBB55" stroke-width="11.91912725659067" stroke-linecap="round" opacity="1" />
<path transform="translate(0,-360) rotate(30)" d="M 0,40  m 0,125
            
            M 0,294  l  0,60.00 l  0,336.3 m  0,60.00 l  0,302.3 m  0,60.00 l  0,271.7 m  0,60.00 l  0,60.85 m  0,60.00 l  0,273.2 m  0,60.00 l  0,253.2 m  0,60.00 l  0,196.8 m  0,60.00 l  0,292.2"
            stroke="#EEBB55" stroke-width="14" stroke-linecap="round" opacity="1" />
<path transform="translate(0,-360) rotate(35)" d="M 0,40  m 0,125
            l0,0.1 m0,25  l0,0.1 m0,25  l0,0.1 m0,25
            M 0,294  l  0,60.00 l  0,232.1 m  0,60.00 l  0,323.0 m  0,60.00 l  0,302.5 m  0,60.00 l  0,65.33 m  0,60.00 l  0,306.4 m  0,60.00 l  0,306.3 m  0,60.00 l  0,342.0 m  0,60.00 l  0,183.8"
            stroke="#EEBB55" stroke-width="14" stroke-linecap="round" opacity="1" />
<path transform="translate(0,-360) rotate(40)" d="M 0,40  m 0,125
            
            M 0,294  l  0,60.00 l  0,186.9 m  0,60.00 l  0,234.3 m  0,60.00 l  0,107.4 m  0,60.00 l  0,288.5 m  0,60.00 l  0,129.0 m  0,60.00 l  0,302.9 m  0,60.00 l  0,356.6 m  0,60.00 l  0,159.7"
            stroke="#EEBB55" stroke-width="14" stroke-linecap="round" opacity="1" />
<path transform="translate(0,-360) rotate(45)" d="M 0,40  m 0,125
            l0,0.1 m0,25  l0,0.1 m0,25  l0,0.1 m0,25
            M 0,294  l  0,60.00 l  0,149.9 m  0,60.00 l  0,64.06 m  0,60.00 l  0,125.2 m  0,60.00 l  0,332.2 m  0,60.00 l  0,314.5 m  0,60.00 l  0,346.5 m  0,60.00 l  0,293.7 m  0,60.00 l  0,356.2"
            stroke="#EEBB55" stroke-width="10.850985482067564" stroke-linecap="round" opacity="1" />
<path transform="translate(0,-360) rotate(50)" d="M 0,40  m 0,125
            
            M 0,294  l  0,60.00 l  0,80.28 m  0,60.00 l  0,298.1 m  0,60.00 l  0,238.4 m  0,60.00 l  0,279.8 m  0,60.00 l  0,268.6 m  0,60.00 l  0,263.9 m  0,60.00 l  0,177.7 m  0,60.00 l  0,228.5"
            stroke="#EEBB55" stroke-width="11.414499693646677" stroke-linecap="round" opacity="1" />
<path transform="translate(0,-360) rotate(55)" d="M 0,40  m 0,125
            l0,0.1 m0,25  l0,0.1 m0,25  l0,0.1 m0,25
            M 0,294  l  0,60.00 l  0,122.4 m  0,60.00 l  0,218.2 m  0,60.00 l  0,181.3 m  0,60.00 l  0,165.8 m  0,60.00 l  0,237.8 m  0,60.00 l  0,166.9 m  0,60.00 l  0,349.5 m  0,60.00 l  0,106.3"
            stroke="#EEBB55" stroke-width="14" stroke-linecap="round" opacity="1" />
<path transform="translate(0,-360) rotate(60)" d="M 0,40  m 0,125
            
            M 0,294  l  0,60.00 l  0,178.5 m  0,60.00 l  0,176.2 m  0,60.00 l  0,278.1 m  0,60.00 l  0,176.6 m  0,60.00 l  0,338.2 m  0,60.00 l  0,190.8 m  0,60.00 l  0,318.8 m  0,60.00 l  0,246.1"
            stroke="#EEBB55" stroke-width="14" stroke-linecap="round" opacity="1" />
<path transform="translate(0,-360) rotate(65)" d="M 0,40  m 0,125
            l0,0.1 m0,25  l0,0.1 m0,25  l0,0.1 m0,25
            M 0,294  l  0,60.00 l  0,95.86 m  0,60.00 l  0,201.6 m  0,60.00 l  0,162.1 m  0,60.00 l  0,219.0 m  0,60.00 l  0,274.8 m  0,60.00 l  0,356.5 m  0,60.00 l  0,276.1 m  0,60.00 l  0,333.8"
            stroke="#EEBB55" stroke-width="13.676689236116756" stroke-linecap="round" opacity="1" />
<path transform="translate(0,-360) rotate(70)" d="M 0,40  m 0,125
            
            M 0,294  l  0,60.00 l  0,211.6 m  0,60.00 l  0,227.5 m  0,60.00 l  0,211.0 m  0,60.00 l  0,198.7 m  0,60.00 l  0,224.0 m  0,60.00 l  0,194.3 m  0,60.00 l  0,316.3 m  0,60.00 l  0,241.3"
            stroke="#EEBB55" stroke-width="14" stroke-linecap="round" opacity="1" />
<path transform="translate(0,-360) rotate(75)" d="M 0,40  m 0,125
            l0,0.1 m0,25  l0,0.1 m0,25  l0,0.1 m0,25
            M 0,294  l  0,60.00 l  0,209.6 m  0,60.00 l  0,354.0 m  0,60.00 l  0,70.30 m  0,60.00 l  0,353.1 m  0,60.00 l  0,169.0 m  0,60.00 l  0,263.9 m  0,60.00 l  0,163.9 m  0,60.00 l  0,316.8"
            stroke="#EEBB55" stroke-width="11.419040593183375" stroke-linecap="round" opacity="1" />
<path transform="translate(0,-360) rotate(80)" d="M 0,40  m 0,125
            
            M 0,294  l  0,60.00 l  0,73.52 m  0,60.00 l  0,258.0 m  0,60.00 l  0,285.0 m  0,60.00 l  0,99.90 m  0,60.00 l  0,354.7 m  0,60.00 l  0,88.61 m  0,60.00 l  0,144.8 m  0,60.00 l  0,300.6"
            stroke="#EEBB55" stroke-width="10.892998258558334" stroke-linecap="round" opacity="1" />
<path transform="translate(0,-360) rotate(85)" d="M 0,40  m 0,125
            l0,0.1 m0,25  l0,0.1 m0,25  l0,0.1 m0,25
            M 0,294  l  0,60.00 l  0,83.27 m  0,60.00 l  0,248.2 m  0,60.00 l  0,62.43 m  0,60.00 l  0,264.1 m  0,60.00 l  0,220.2 m  0,60.00 l  0,191.6 m  0,60.00 l  0,119.9 m  0,60.00 l  0,101.4"
            stroke="#EEBB55" stroke-width="10.041520538283866" stroke-linecap="round" opacity="1" />
<path transform="translate(0,-360) rotate(90)" d="M 0,40  m 0,125
            
            M 0,294  l  0,60.00 l  0,174.7 m  0,60.00 l  0,288.7 m  0,60.00 l  0,72.14 m  0,60.00 l  0,135.9 m  0,60.00 l  0,211.4 m  0,60.00 l  0,306.8 m  0,60.00 l  0,354.5 m  0,60.00 l  0,307.0"
            stroke="#EEBB55" stroke-width="14" stroke-linecap="round" opacity="1" />
<path transform="translate(0,-360) rotate(95)" d="M 0,40  m 0,125
            l0,0.1 m0,25  l0,0.1 m0,25  l0,0.1 m0,25
            M 0,294  l  0,60.00 l  0,150.5 m  0,60.00 l  0,74.38 m  0,60.00 l  0,134.4 m  0,60.00 l  0,223.2 m  0,60.00 l  0,326.3 m  0,60.00 l  0,163.2 m  0,60.00 l  0,69.98 m  0,60.00 l  0,108.9"
            stroke="#EEBB55" stroke-width="13.56587672339889" stroke-linecap="round" opacity="1" />
<path transform="translate(0,-360) rotate(100)" d="M 0,40  m 0,125
            
            M 0,294  l  0,60.00 l  0,323.2 m  0,60.00 l  0,123.1 m  0,60.00 l  0,141.8 m  0,60.00 l  0,207.7 m  0,60.00 l  0,127.0 m  0,60.00 l  0,207.1 m  0,60.00 l  0,346.5 m  0,60.00 l  0,255.6"
            stroke="#EEBB55" stroke-width="14" stroke-linecap="round" opacity="1" />
<path transform="translate(0,-360) rotate(105)" d="M 0,40  m 0,125
            l0,0.1 m0,25  l0,0.1 m0,25  l0,0.1 m0,25
            M 0,294  l  0,60.00 l  0,287.3 m  0,60.00 l  0,190.6 m  0,60.00 l  0,225.9 m  0,60.00 l  0,75.95 m  0,60.00 l  0,156.8 m  0,60.00 l  0,181.5 m  0,60.00 l  0,332.5 m  0,60.00 l  0,302.7"
            stroke="#EEBB55" stroke-width="14" stroke-linecap="round" opacity="1" />
<path transform="translate(0,-360) rotate(110)" d="M 0,40  m 0,125
            
            M 0,294  l  0,60.00 l  0,137.5 m  0,60.00 l  0,98.95 m  0,60.00 l  0,208.0 m  0,60.00 l  0,173.6 m  0,60.00 l  0,275.5 m  0,60.00 l  0,146.3 m  0,60.00 l  0,247.0 m  0,60.00 l  0,303.6"
            stroke="#EEBB55" stroke-width="14" stroke-linecap="round" opacity="1" />
<path transform="translate(0,-360) rotate(115)" d="M 0,40  m 0,125
            l0,0.1 m0,25  l0,0.1 m0,25  l0,0.1 m0,25
            M 0,294  l  0,60.00 l  0,153.8 m  0,60.00 l  0,175.7 m  0,60.00 l  0,163.2 m  0,60.00 l  0,304.7 m  0,60.00 l  0,260.8 m  0,60.00 l  0,173.8 m  0,60.00 l  0,197.5 m  0,60.00 l  0,151.1"
            stroke="#EEBB55" stroke-width="13.587017511852789" stroke-linecap="round" opacity="1" />
<path transform="translate(0,-360) rotate(120)" d="M 0,40  m 0,125
            
            M 0,294  l  0,60.00 l  0,333.2 m  0,60.00 l  0,206.6 m  0,60.00 l  0,286.7 m  0,60.00 l  0,92.42 m  0,60.00 l  0,178.1 m  0,60.00 l  0,321.1 m  0,60.00 l  0,168.3 m  0,60.00 l  0,335.1"
            stroke="#EEBB55" stroke-width="10.553876461590146" stroke-linecap="round" opacity="1" />
<path transform="translate(0,-360) rotate(125)" d="M 0,40  m 0,125
            l0,0.1 m0,25  l0,0.1 m0,25  l0,0.1 m0,25
            M 0,294  l  0,60.00 l  0,223.1 m  0,60.00 l  0,102.0 m  0,60.00 l  0,120.0 m  0,60.00 l  0,344.7 m  0,60.00 l  0,357.0 m  0,60.00 l  0,132.0 m  0,60.00 l  0,64.96 m  0,60.00 l  0,176.6"
            stroke="#EEBB55" stroke-width="12.05958023761855" stroke-linecap="round" opacity="1" />
<path transform="translate(0,-360) rotate(130)" d="M 0,40  m 0,125
            
            M 0,294  l  0,60.00 l  0,293.9 m  0,60.00 l  0,203.0 m  0,60.00 l  0,222.0 m  0,60.00 l  0,65.54 m  0,60.00 l  0,330.1 m  0,60.00 l  0,118.3 m  0,60.00 l  0,325.8 m  0,60.00 l  0,192.4"
            stroke="#EEBB55" stroke-width="12.025072874274354" stroke-linecap="round" opacity="1" />
<path transform="translate(0,-360) rotate(135)" d="M 0,40  m 0,125
            l0,0.1 m0,25  l0,0.1 m0,25  l0,0.1 m0,25
            M 0,294  l  0,60.00 l  0,104.3 m  0,60.00 l  0,131.9 m  0,60.00 l  0,299.9 m  0,60.00 l  0,201.9 m  0,60.00 l  0,86.95 m  0,60.00 l  0,253.4 m  0,60.00 l  0,249.9 m  0,60.00 l  0,235.3"
            stroke="#EEBB55" stroke-width="13.80777022796864" stroke-linecap="round" opacity="1" />
<path transform="translate(0,-360) rotate(140)" d="M 0,40  m 0,125
            
            M 0,294  l  0,60.00 l  0,278.0 m  0,60.00 l  0,166.4 m  0,60.00 l  0,264.1 m  0,60.00 l  0,272.2 m  0,60.00 l  0,108.7 m  0,60.00 l  0,100.1 m  0,60.00 l  0,194.9 m  0,60.00 l  0,72.62"
            stroke="#EEBB55" stroke-width="12.983717334452951" stroke-linecap="round" opacity="1" />
<path transform="translate(0,-360) rotate(145)" d="M 0,40  m 0,125
            l0,0.1 m0,25  l0,0.1 m0,25  l0,0.1 m0,25
            M 0,294  l  0,60.00 l  0,299.2 m  0,60.00 l  0,110.3 m  0,60.00 l  0,309.4 m  0,60.00 l  0,157.5 m  0,60.00 l  0,256.7 m  0,60.00 l  0,186.1 m  0,60.00 l  0,294.6 m  0,60.00 l  0,93.96"
            stroke="#EEBB55" stroke-width="11.342771568648232" stroke-linecap="round" opacity="1" />
<path transform="translate(0,-360) rotate(150)" d="M 0,40  m 0,125
            
            M 0,294  l  0,60.00 l  0,358.1 m  0,60.00 l  0,114.5 m  0,60.00 l  0,288.9 m  0,60.00 l  0,139.8 m  0,60.00 l  0,133.2 m  0,60.00 l  0,90.22 m  0,60.00 l  0,163.3 m  0,60.00 l  0,144.5"
            stroke="#EEBB55" stroke-width="11.251278058917094" stroke-linecap="round" opacity="1" />
<path transform="translate(0,-360) rotate(155)" d="M 0,40  m 0,125
            l0,0.1 m0,25  l0,0.1 m0,25  l0,0.1 m0,25
            M 0,294  l  0,60.00 l  0,350.6 m  0,60.00 l  0,124.1 m  0,60.00 l  0,241.8 m  0,60.00 l  0,128.0 m  0,60.00 l  0,117.0 m  0,60.00 l  0,180.5 m  0,60.00 l  0,184.0 m  0,60.00 l  0,111.0"
            stroke="#EEBB55" stroke-width="10.419481797707146" stroke-linecap="round" opacity="1" />
<path transform="translate(0,-360) rotate(160)" d="M 0,40  m 0,125
            
            M 0,294  l  0,60.00 l  0,149.7 m  0,60.00 l  0,250.9 m  0,60.00 l  0,105.5 m  0,60.00 l  0,290.8 m  0,60.00 l  0,325.2 m  0,60.00 l  0,347.8 m  0,60.00 l  0,65.42 m  0,60.00 l  0,234.9"
            stroke="#EEBB55" stroke-width="14" stroke-linecap="round" opacity="1" />
<path transform="translate(0,-360) rotate(165)" d="M 0,40  m 0,125
            l0,0.1 m0,25  l0,0.1 m0,25  l0,0.1 m0,25
            M 0,294  l  0,60.00 l  0,290.1 m  0,60.00 l  0,158.3 m  0,60.00 l  0,98.72 m  0,60.00 l  0,147.6 m  0,60.00 l  0,314.1 m  0,60.00 l  0,129.2 m  0,60.00 l  0,210.6 m  0,60.00 l  0,60.48"
            stroke="#EEBB55" stroke-width="14" stroke-linecap="round" opacity="1" />
<path transform="translate(0,-360) rotate(170)" d="M 0,40  m 0,125
            
            M 0,294  l  0,60.00 l  0,63.76 m  0,60.00 l  0,146.0 m  0,60.00 l  0,89.61 m  0,60.00 l  0,175.4 m  0,60.00 l  0,166.6 m  0,60.00 l  0,276.0 m  0,60.00 l  0,79.63 m  0,60.00 l  0,214.2"
            stroke="#EEBB55" stroke-width="14" stroke-linecap="round" opacity="1" />
<path transform="translate(0,-360) rotate(175)" d="M 0,40  m 0,125
            l0,0.1 m0,25  l0,0.1 m0,25  l0,0.1 m0,25
            M 0,294  l  0,60.00 l  0,187.2 m  0,60.00 l  0,266.9 m  0,60.00 l  0,136.2 m  0,60.00 l  0,180.5 m  0,60.00 l  0,139.3 m  0,60.00 l  0,340.3 m  0,60.00 l  0,201.8 m  0,60.00 l  0,243.3"
            stroke="#EEBB55" stroke-width="10.080348794134416" stroke-linecap="round" opacity="1" />
<path transform="translate(0,-360) rotate(180)" d="M 0,40  m 0,125
            
            M 0,294  l  0,60.00 l  0,206.5 m  0,60.00 l  0,214.4 m  0,60.00 l  0,133.5 m  0,60.00 l  0,159.9 m  0,60.00 l  0,210.7 m  0,60.00 l  0,238.8 m  0,60.00 l  0,153.0 m  0,60.00 l  0,348.9"
            stroke="#EEBB55" stroke-width="14" stroke-linecap="round" opacity="1" />
<path transform="translate(0,-360) rotate(185)" d="M 0,40  m 0,125
            l0,0.1 m0,25  l0,0.1 m0,25  l0,0.1 m0,25
            M 0,294  l  0,60.00 l  0,129.7 m  0,60.00 l  0,284.1 m  0,60.00 l  0,156.8 m  0,60.00 l  0,155.5 m  0,60.00 l  0,345.7 m  0,60.00 l  0,220.4 m  0,60.00 l  0,321.5 m  0,60.00 l  0,340.4"
            stroke="#EEBB55" stroke-width="14" stroke-linecap="round" opacity="1" />
<path transform="translate(0,-360) rotate(190)" d="M 0,40  m 0,125
            
            M 0,294  l  0,60.00 l  0,260.1 m  0,60.00 l  0,146.9 m  0,60.00 l  0,79.66 m  0,60.00 l  0,129.6 m  0,60.00 l  0,271.4 m  0,60.00 l  0,118.5 m  0,60.00 l  0,186.7 m  0,60.00 l  0,340.8"
            stroke="#EEBB55" stroke-width="11.0607254551865" stroke-linecap="round" opacity="1" />
<path transform="translate(0,-360) rotate(195)" d="M 0,40  m 0,125
            l0,0.1 m0,25  l0,0.1 m0,25  l0,0.1 m0,25
            M 0,294  l  0,60.00 l  0,102.7 m  0,60.00 l  0,253.0 m  0,60.00 l  0,201.8 m  0,60.00 l  0,191.1 m  0,60.00 l  0,133.3 m  0,60.00 l  0,211.8 m  0,60.00 l  0,332.1 m  0,60.00 l  0,82.95"
            stroke="#EEBB55" stroke-width="11.547716029348717" stroke-linecap="round" opacity="1" />
<path transform="translate(0,-360) rotate(200)" d="M 0,40  m 0,125
            
            M 0,294  l  0,60.00 l  0,274.2 m  0,60.00 l  0,245.2 m  0,60.00 l  0,116.7 m  0,60.00 l  0,179.1 m  0,60.00 l  0,143.3 m  0,60.00 l  0,317.4 m  0,60.00 l  0,332.7 m  0,60.00 l  0,245.2"
            stroke="#EEBB55" stroke-width="14" stroke-linecap="round" opacity="1" />
<path transform="translate(0,-360) rotate(205)" d="M 0,40  m 0,125
            l0,0.1 m0,25  l0,0.1 m0,25  l0,0.1 m0,25
            M 0,294  l  0,60.00 l  0,114.2 m  0,60.00 l  0,214.5 m  0,60.00 l  0,307.4 m  0,60.00 l  0,167.8 m  0,60.00 l  0,304.8 m  0,60.00 l  0,148.0 m  0,60.00 l  0,111.6 m  0,60.00 l  0,207.8"
            stroke="#EEBB55" stroke-width="12.83847507178748" stroke-linecap="round" opacity="1" />
<path transform="translate(0,-360) rotate(210)" d="M 0,40  m 0,125
            
            M 0,294  l  0,60.00 l  0,118.6 m  0,60.00 l  0,319.3 m  0,60.00 l  0,121.3 m  0,60.00 l  0,244.9 m  0,60.00 l  0,323.4 m  0,60.00 l  0,177.7 m  0,60.00 l  0,344.0 m  0,60.00 l  0,110.0"
            stroke="#EEBB55" stroke-width="12.133369813937081" stroke-linecap="round" opacity="1" />
<path transform="translate(0,-360) rotate(215)" d="M 0,40  m 0,125
            l0,0.1 m0,25  l0,0.1 m0,25  l0,0.1 m0,25
            M 0,294  l  0,60.00 l  0,351.6 m  0,60.00 l  0,229.2 m  0,60.00 l  0,239.5 m  0,60.00 l  0,99.37 m  0,60.00 l  0,230.0 m  0,60.00 l  0,226.3 m  0,60.00 l  0,153.1 m  0,60.00 l  0,96.19"
            stroke="#EEBB55" stroke-width="14" stroke-linecap="round" opacity="1" />
<path transform="translate(0,-360) rotate(220)" d="M 0,40  m 0,125
            
            M 0,294  l  0,60.00 l  0,281.3 m  0,60.00 l  0,132.8 m  0,60.00 l  0,306.9 m  0,60.00 l  0,115.6 m  0,60.00 l  0,153.8 m  0,60.00 l  0,324.5 m  0,60.00 l  0,262.3 m  0,60.00 l  0,281.8"
            stroke="#EEBB55" stroke-width="14" stroke-linecap="round" opacity="1" />
<path transform="translate(0,-360) rotate(225)" d="M 0,40  m 0,125
            l0,0.1 m0,25  l0,0.1 m0,25  l0,0.1 m0,25
            M 0,294  l  0,60.00 l  0,78.76 m  0,60.00 l  0,99.47 m  0,60.00 l  0,86.99 m  0,60.00 l  0,62.49 m  0,60.00 l  0,197.0 m  0,60.00 l  0,250.3 m  0,60.00 l  0,218.9 m  0,60.00 l  0,209.4"
            stroke="#EEBB55" stroke-width="14" stroke-linecap="round" opacity="1" />
<path transform="translate(0,-360) rotate(230)" d="M 0,40  m 0,125
            
            M 0,294  l  0,60.00 l  0,160.7 m  0,60.00 l  0,135.8 m  0,60.00 l  0,130.1 m  0,60.00 l  0,111.9 m  0,60.00 l  0,238.8 m  0,60.00 l  0,278.1 m  0,60.00 l  0,323.3 m  0,60.00 l  0,272.1"
            stroke="#EEBB55" stroke-width="12.85023285025969" stroke-linecap="round" opacity="1" />
<path transform="translate(0,-360) rotate(235)" d="M 0,40  m 0,125
            l0,0.1 m0,25  l0,0.1 m0,25  l0,0.1 m0,25
            M 0,294  l  0,60.00 l  0,130.4 m  0,60.00 l  0,203.4 m  0,60.00 l  0,65.46 m  0,60.00 l  0,284.2 m  0,60.00 l  0,256.4 m  0,60.00 l  0,83.42 m  0,60.00 l  0,201.8 m  0,60.00 l  0,358.9"
            stroke="#EEBB55" stroke-width="10.245235395209221" stroke-linecap="round" opacity="1" />
<path transform="translate(0,-360) rotate(240)" d="M 0,40  m 0,125
            
            M 0,294  l  0,60.00 l  0,219.6 m  0,60.00 l  0,329.8 m  0,60.00 l  0,291.9 m  0,60.00 l  0,121.1 m  0,60.00 l  0,332.1 m  0,60.00 l  0,172.4 m  0,60.00 l  0,314.4 m  0,60.00 l  0,158.0"
            stroke="#EEBB55" stroke-width="14" stroke-linecap="round" opacity="1" />
<path transform="translate(0,-360) rotate(245)" d="M 0,40  m 0,125
            l0,0.1 m0,25  l0,0.1 m0,25  l0,0.1 m0,25
            M 0,294  l  0,60.00 l  0,158.0 m  0,60.00 l  0,257.8 m  0,60.00 l  0,236.0 m  0,60.00 l  0,74.69 m  0,60.00 l  0,291.0 m  0,60.00 l  0,207.5 m  0,60.00 l  0,206.5 m  0,60.00 l  0,188.7"
            stroke="#EEBB55" stroke-width="11.911316947525208" stroke-linecap="round" opacity="1" />
<path transform="translate(0,-360) rotate(250)" d="M 0,40  m 0,125
            
            M 0,294  l  0,60.00 l  0,178.4 m  0,60.00 l  0,292.9 m  0,60.00 l  0,352.4 m  0,60.00 l  0,284.6 m  0,60.00 l  0,250.4 m  0,60.00 l  0,81.65 m  0,60.00 l  0,250.0 m  0,60.00 l  0,218.7"
            stroke="#EEBB55" stroke-width="10.507550107200526" stroke-linecap="round" opacity="1" />
<path transform="translate(0,-360) rotate(255)" d="M 0,40  m 0,125
            l0,0.1 m0,25  l0,0.1 m0,25  l0,0.1 m0,25
            M 0,294  l  0,60.00 l  0,148.9 m  0,60.00 l  0,157.6 m  0,60.00 l  0,249.3 m  0,60.00 l  0,358.4 m  0,60.00 l  0,214.8 m  0,60.00 l  0,277.3 m  0,60.00 l  0,133.7 m  0,60.00 l  0,159.7"
            stroke="#EEBB55" stroke-width="10.961252689818213" stroke-linecap="round" opacity="1" />
<path transform="translate(0,-360) rotate(260)" d="M 0,40  m 0,125
            
            M 0,294  l  0,60.00 l  0,284.6 m  0,60.00 l  0,264.9 m  0,60.00 l  0,264.4 m  0,60.00 l  0,83.65 m  0,60.00 l  0,197.7 m  0,60.00 l  0,269.4 m  0,60.00 l  0,80.37 m  0,60.00 l  0,80.74"
            stroke="#EEBB55" stroke-width="14" stroke-linecap="round" opacity="1" />
<path transform="translate(0,-360) rotate(265)" d="M 0,40  m 0,125
            l0,0.1 m0,25  l0,0.1 m0,25  l0,0.1 m0,25
            M 0,294  l  0,60.00 l  0,218.1 m  0,60.00 l  0,138.6 m  0,60.00 l  0,205.0 m  0,60.00 l  0,99.24 m  0,60.00 l  0,88.33 m  0,60.00 l  0,96.11 m  0,60.00 l  0,351.0 m  0,60.00 l  0,286.9"
            stroke="#EEBB55" stroke-width="14" stroke-linecap="round" opacity="1" />
<path transform="translate(0,-360) rotate(270)" d="M 0,40  m 0,125
            
            M 0,294  l  0,60.00 l  0,140.5 m  0,60.00 l  0,277.5 m  0,60.00 l  0,184.7 m  0,60.00 l  0,202.4 m  0,60.00 l  0,76.63 m  0,60.00 l  0,244.1 m  0,60.00 l  0,207.2 m  0,60.00 l  0,331.3"
            stroke="#EEBB55" stroke-width="11.98729503224308" stroke-linecap="round" opacity="1" />
<path transform="translate(0,-360) rotate(275)" d="M 0,40  m 0,125
            l0,0.1 m0,25  l0,0.1 m0,25  l0,0.1 m0,25
            M 0,294  l  0,60.00 l  0,340.6 m  0,60.00 l  0,335.5 m  0,60.00 l  0,151.1 m  0,60.00 l  0,297.0 m  0,60.00 l  0,127.9 m  0,60.00 l  0,194.7 m  0,60.00 l  0,213.0 m  0,60.00 l  0,129.2"
            stroke="#EEBB55" stroke-width="11.956545770158186" stroke-linecap="round" opacity="1" />
<path transform="translate(0,-360) rotate(280)" d="M 0,40  m 0,125
            
            M 0,294  l  0,60.00 l  0,273.6 m  0,60.00 l  0,355.3 m  0,60.00 l  0,256.6 m  0,60.00 l  0,141.8 m  0,60.00 l  0,200.7 m  0,60.00 l  0,60.90 m  0,60.00 l  0,193.9 m  0,60.00 l  0,351.3"
            stroke="#EEBB55" stroke-width="13.461510462793873" stroke-linecap="round" opacity="1" />
<path transform="translate(0,-360) rotate(285)" d="M 0,40  m 0,125
            l0,0.1 m0,25  l0,0.1 m0,25  l0,0.1 m0,25
            M 0,294  l  0,60.00 l  0,151.4 m  0,60.00 l  0,124.5 m  0,60.00 l  0,134.3 m  0,60.00 l  0,301.9 m  0,60.00 l  0,205.9 m  0,60.00 l  0,182.3 m  0,60.00 l  0,124.7 m  0,60.00 l  0,222.1"
            stroke="#EEBB55" stroke-width="13.47766985196566" stroke-linecap="round" opacity="1" />
<path transform="translate(0,-360) rotate(290)" d="M 0,40  m 0,125
            
            M 0,294  l  0,60.00 l  0,276.9 m  0,60.00 l  0,145.1 m  0,60.00 l  0,222.9 m  0,60.00 l  0,286.8 m  0,60.00 l  0,159.6 m  0,60.00 l  0,300.5 m  0,60.00 l  0,317.1 m  0,60.00 l  0,64.47"
            stroke="#EEBB55" stroke-width="13.173856266814717" stroke-linecap="round" opacity="1" />
<path transform="translate(0,-360) rotate(295)" d="M 0,40  m 0,125
            l0,0.1 m0,25  l0,0.1 m0,25  l0,0.1 m0,25
            M 0,294  l  0,60.00 l  0,325.5 m  0,60.00 l  0,237.9 m  0,60.00 l  0,85.87 m  0,60.00 l  0,337.5 m  0,60.00 l  0,334.1 m  0,60.00 l  0,354.2 m  0,60.00 l  0,330.0 m  0,60.00 l  0,344.9"
            stroke="#EEBB55" stroke-width="11.018843091563053" stroke-linecap="round" opacity="1" />
<path transform="translate(0,-360) rotate(300)" d="M 0,40  m 0,125
            
            M 0,294  l  0,60.00 l  0,340.4 m  0,60.00 l  0,62.50 m  0,60.00 l  0,293.3 m  0,60.00 l  0,67.79 m  0,60.00 l  0,236.4 m  0,60.00 l  0,254.9 m  0,60.00 l  0,158.5 m  0,60.00 l  0,93.32"
            stroke="#EEBB55" stroke-width="13.510190694711682" stroke-linecap="round" opacity="1" />
<path transform="translate(0,-360) rotate(305)" d="M 0,40  m 0,125
            l0,0.1 m0,25  l0,0.1 m0,25  l0,0.1 m0,25
            M 0,294  l  0,60.00 l  0,97.28 m  0,60.00 l  0,352.2 m  0,60.00 l  0,220.0 m  0,60.00 l  0,258.7 m  0,60.00 l  0,272.5 m  0,60.00 l  0,80.62 m  0,60.00 l  0,121.8 m  0,60.00 l  0,190.0"
            stroke="#EEBB55" stroke-width="14" stroke-linecap="round" opacity="1" />
<path transform="translate(0,-360) rotate(310)" d="M 0,40  m 0,125
            
            M 0,294  l  0,60.00 l  0,63.36 m  0,60.00 l  0,80.78 m  0,60.00 l  0,162.9 m  0,60.00 l  0,153.7 m  0,60.00 l  0,357.8 m  0,60.00 l  0,140.7 m  0,60.00 l  0,317.1 m  0,60.00 l  0,166.7"
            stroke="#EEBB55" stroke-width="14" stroke-linecap="round" opacity="1" />
<path transform="translate(0,-360) rotate(315)" d="M 0,40  m 0,125
            l0,0.1 m0,25  l0,0.1 m0,25  l0,0.1 m0,25
            M 0,294  l  0,60.00 l  0,284.0 m  0,60.00 l  0,313.5 m  0,60.00 l  0,125.1 m  0,60.00 l  0,349.5 m  0,60.00 l  0,273.7 m  0,60.00 l  0,354.8 m  0,60.00 l  0,288.0 m  0,60.00 l  0,118.0"
            stroke="#EEBB55" stroke-width="14" stroke-linecap="round" opacity="1" />
<path transform="translate(0,-360) rotate(320)" d="M 0,40  m 0,125
            
            M 0,294  l  0,60.00 l  0,165.8 m  0,60.00 l  0,118.9 m  0,60.00 l  0,309.6 m  0,60.00 l  0,345.8 m  0,60.00 l  0,290.2 m  0,60.00 l  0,318.6 m  0,60.00 l  0,196.7 m  0,60.00 l  0,159.8"
            stroke="#EEBB55" stroke-width="14" stroke-linecap="round" opacity="1" />
<path transform="translate(0,-360) rotate(325)" d="M 0,40  m 0,125
            l0,0.1 m0,25  l0,0.1 m0,25  l0,0.1 m0,25
            M 0,294  l  0,60.00 l  0,311.5 m  0,60.00 l  0,226.3 m  0,60.00 l  0,96.26 m  0,60.00 l  0,123.7 m  0,60.00 l  0,207.4 m  0,60.00 l  0,182.9 m  0,60.00 l  0,287.9 m  0,60.00 l  0,167.1"
            stroke="#EEBB55" stroke-width="11.750413187721374" stroke-linecap="round" opacity="1" />
<path transform="translate(0,-360) rotate(330)" d="M 0,40  m 0,125
            
            M 0,294  l  0,60.00 l  0,291.5 m  0,60.00 l  0,354.5 m  0,60.00 l  0,313.8 m  0,60.00 l  0,310.4 m  0,60.00 l  0,170.2 m  0,60.00 l  0,75.19 m  0,60.00 l  0,352.7 m  0,60.00 l  0,312.8"
            stroke="#EEBB55" stroke-width="10.123476052452688" stroke-linecap="round" opacity="1" />
<path transform="translate(0,-360) rotate(335)" d="M 0,40  m 0,125
            l0,0.1 m0,25  l0,0.1 m0,25  l0,0.1 m0,25
            M 0,294  l  0,60.00 l  0,320.8 m  0,60.00 l  0,82.65 m  0,60.00 l  0,69.71 m  0,60.00 l  0,244.2 m  0,60.00 l  0,280.7 m  0,60.00 l  0,244.7 m  0,60.00 l  0,258.8 m  0,60.00 l  0,345.4"
            stroke="#EEBB55" stroke-width="14" stroke-linecap="round" opacity="1" />
<path transform="translate(0,-360) rotate(340)" d="M 0,40  m 0,125
            
            M 0,294  l  0,60.00 l  0,139.8 m  0,60.00 l  0,335.8 m  0,60.00 l  0,95.52 m  0,60.00 l  0,153.9 m  0,60.00 l  0,321.6 m  0,60.00 l  0,130.1 m  0,60.00 l  0,302.4 m  0,60.00 l  0,227.0"
            stroke="#EEBB55" stroke-width="14" stroke-linecap="round" opacity="1" />
<path transform="translate(0,-360) rotate(345)" d="M 0,40  m 0,125
            l0,0.1 m0,25  l0,0.1 m0,25  l0,0.1 m0,25
            M 0,294  l  0,60.00 l  0,343.1 m  0,60.00 l  0,211.1 m  0,60.00 l  0,259.9 m  0,60.00 l  0,105.9 m  0,60.00 l  0,352.0 m  0,60.00 l  0,250.1 m  0,60.00 l  0,113.6 m  0,60.00 l  0,82.24"
            stroke="#EEBB55" stroke-width="14" stroke-linecap="round" opacity="1" />
<path transform="translate(0,-360) rotate(350)" d="M 0,40  m 0,125
            
            M 0,294  l  0,60.00 l  0,208.5 m  0,60.00 l  0,295.8 m  0,60.00 l  0,199.4 m  0,60.00 l  0,324.9 m  0,60.00 l  0,254.2 m  0,60.00 l  0,331.0 m  0,60.00 l  0,61.79 m  0,60.00 l  0,268.1"
            stroke="#EEBB55" stroke-width="13.262468244941548" stroke-linecap="round" opacity="1" />
<path transform="translate(0,-360) rotate(355)" d="M 0,40  m 0,125
            l0,0.1 m0,25  l0,0.1 m0,25  l0,0.1 m0,25
            M 0,294  l  0,60.00 l  0,235.5 m  0,60.00 l  0,91.61 m  0,60.00 l  0,357.1 m  0,60.00 l  0,129.0 m  0,60.00 l  0,159.9 m  0,60.00 l  0,266.8 m  0,60.00 l  0,348.4 m  0,60.00 l  0,128.0"
            stroke="#EEBB55" stroke-width="14" stroke-linecap="round" opacity="1" />
</g>
<use href="#mini_reusable_star_c1" transform="translate(470.6,-360)" />
<use href="#mini_reusable_star_c1" transform="translate(434.7777079998115,-221.4685974838375)" />
<use href="#mini_reusable_star_c1" transform="translate(332.7644512263893,-104.02734521046983)" />
<use href="#mini_reusable_star_c1" transform="translate(180.0908232710113,-25.55560923091423)" />
<use href="#mini_reusable_star_c1" transform="translate(2.8815939183937223e-14,2)" />
<use href="#mini_reusable_star_c1" transform="translate(-180.09082327101123,-25.55560923091423)" />
<use href="#mini_reusable_star_c1" transform="translate(-332.7644512263892,-104.02734521046978)" />
<use href="#mini_reusable_star_c1" transform="translate(-434.7777079998115,-221.46859748383747)" />
<use href="#mini_reusable_star_c1" transform="translate(-470.6,-359.99999999999994)" />
<use href="#mini_reusable_star_c1" transform="translate(-434.7777079998116,-498.5314025161624)" />
<use href="#mini_reusable_star_c1" transform="translate(-332.7644512263893,-615.9726547895302)" />
<use href="#mini_reusable_star_c1" transform="translate(-180.09082327101152,-694.4443907690857)" />
<use href="#mini_reusable_star_c1" transform="translate(-8.644781755181166e-14,-722)" />
<use href="#mini_reusable_star_c1" transform="translate(180.09082327101137,-694.4443907690858)" />
<use href="#mini_reusable_star_c1" transform="translate(332.7644512263892,-615.9726547895302)" />
<use href="#mini_reusable_star_c1" transform="translate(434.77770799981147,-498.53140251616276)" />
<use href="#mini_reusable_star_c1" transform="translate(730.4888768443259,-256.21194868741975)" />
<use href="#mini_reusable_star_c1" transform="translate(619.2785672429357,-64.43663603357163)" />
<use href="#mini_reusable_star_c1" transform="translate(413.78870955299976,82.34183374495404)" />
<use href="#mini_reusable_star_c1" transform="translate(145.30327183761239,161.77776917451854)" />
<use href="#mini_reusable_star_c1" transform="translate(-145.30327183761227,161.77776917451854)" />
<use href="#mini_reusable_star_c1" transform="translate(-413.78870955299953,82.3418337449541)" />
<use href="#mini_reusable_star_c1" transform="translate(-619.2785672429357,-64.43663603357163)" />
<use href="#mini_reusable_star_c1" transform="translate(-730.4888768443259,-256.2119486874196)" />
<use href="#mini_reusable_star_c1" transform="translate(-730.4888768443259,-463.7880513125803)" />
<use href="#mini_reusable_star_c1" transform="translate(-619.2785672429358,-655.5633639664283)" />
<use href="#mini_reusable_star_c1" transform="translate(-413.7887095529997,-802.3418337449541)" />
<use href="#mini_reusable_star_c1" transform="translate(-145.3032718376126,-881.7777691745185)" />
<use href="#mini_reusable_star_c1" transform="translate(145.30327183761233,-881.7777691745185)" />
<use href="#mini_reusable_star_c1" transform="translate(413.7887095529995,-802.3418337449541)" />
<use href="#mini_reusable_star_c1" transform="translate(619.2785672429357,-655.5633639664284)" />
<use href="#mini_reusable_star_c1" transform="translate(730.4888768443259,-463.7880513125805)" />
<polygon   stroke-width="21"     opacity="1"     fill="none"     stroke="#142c44"     transform="translate(0,-360)"   points="0 300 79.6 192.17 212.13 212.13 192.17 79.6 300 0 192.17 -79.6 212.13 -212.13 79.6 -192.17 0 -300 -79.6 -192.17 -212.13 -212.13 -192.17 -79.6 -300 0 -192.17 79.6 -212.13 212.13 -79.6 192.17" /><polygon   stroke-width="17"     opacity="1"     fill="none"     stroke="#FFF1C6"     transform="translate(0,-360)"   points="0 294 77.3 186.62 207.89 207.89 186.62 77.3 294 0 186.62 -77.3 207.89 -207.89 77.3 -186.62 0 -294 -77.3 -186.62 -207.89 -207.89 -186.62 -77.3 -294 0 -186.62 77.3 -207.89 207.89 -77.3 186.62" /><ellipse filter="url(#blurMe)" id="u192361323" cx="600" cy="0" rx="240" ry="290" fill="#FFF1C6" opacity="0.75" />
<g transform="scale(-1,1)"><use href="#u192361323" /></g>

<!-- Libra -->
<g>
    <path d="M 600,278 m -135,0 l 270,0     M 600,-294 l 0,-50.0 m -20,50 l 40,0" stroke="#142c44" stroke-width="7" opacity="1" stroke-linejoin="round" stroke-linecap="round" />
    <path d="M -600,278 m -135,0 l 270,0    M -600,-294 l 0,-50.0 m -20,50 l 40,0" stroke="#142c44" stroke-width="7" opacity="1" stroke-linejoin="round" stroke-linecap="round" />

    <rect x="-630" y="-390" width="1260" height="60" fill="#FFF1C6" stroke="#142c44" stroke-width="7" stroke-linejoin="round" />
</g>
<polygon   stroke-width="22"     fill="#142c44"     stroke="#142c44"     transform="translate(0,-360)"   points="0 168 36.35 87.77 118.79 118.79 87.77 36.35 168 0 87.77 -36.35 118.79 -118.79 36.35 -87.77 0 -168 -36.35 -87.77 -118.79 -118.79 -87.77 -36.35 -168 0 -87.77 36.35 -118.79 118.79 -36.35 87.77" /><polygon   stroke-width="10"     fill="#FFF1C6"     stroke="#EEBB55"     transform="translate(0,-360)"   points="0 71 115.26 115.26 71 0 115.26 -115.26 0 -71 -115.26 -115.26 -71 0 -115.26 115.26" /><polygon   stroke-width="10"     fill="#FFF1C6"     stroke="#EEBB55"     transform="translate(0,-360)"   points="0 163 50.2 50.2 163 0 50.2 -50.2 0 -163 -50.2 -50.2 -163 0 -50.2 50.2" /><text
        x="0" y="568" stroke-linejoin="round"
        text-anchor="middle" font-family="Inter Tight SemiBold" letter-spacing="0" opacity="0.5"
        font-size="32.5" fill="#142c44" stroke="#142c44" stroke-width="0" transform="scale(1,1)"
>VERWEILE DOCH DU BIST SO SCHÖN * VERWEILE DOCH DU BIST SO SCHÖN * VERWEILE DOCH DU BIST SO SCHÖN</text>
<text
        x="-614" y="-346" stroke-linejoin="round"
        text-anchor="begin" font-family="Inter Tight Black"
        font-size="36" fill="#EEBB55" stroke="#EEBB55" stroke-width="0" transform="scale(1,1)"
    >MOMENT OF ROMANCE</text>
<text
        x="614" y="-346" stroke-linejoin="round"
        text-anchor="end" font-family="Inter Tight Black"
        font-size="36" fill="#EEBB55" stroke="#EEBB55" stroke-width="0" transform="scale(1,1)"
    >MOMENT OF ROMANCE</text>

</g>





<use href="#contentboxsizer" fill="none" stroke="#142c44" stroke-width="14"  />

</svg>