<svg width="400" height="400" viewBox="0 0 400 400" fill="none" xmlns="http://www.w3.org/2000/svg">
<defs>
    <mask id="mymask1">
    // <svg width="400" height="400" viewBox="0 0 400 400" fill="none" xmlns="http://www.w3.org/2000/svg">
<g clip-path="url(#clip0_752_81)">
<rect width="400" height="400" fill="black"/>
<rect x="105" y="60" width="190" height="24" fill="white"/>
<path fill-rule="evenodd" clip-rule="evenodd" d="M279 76H121V104C121 149.67 140.288 180.043 174.524 200C140.288 219.957 121 250.33 121 296V324H279V296C279 250.33 259.712 219.957 225.476 200C259.712 180.043 279 149.67 279 104V76Z" fill="black"/>
<path d="M121 76V68C116.582 68 113 71.5817 113 76H121ZM279 76H287C287 71.5817 283.418 68 279 68V76ZM121 104L129 104V104H121ZM174.524 200L178.553 206.911C181.012 205.478 182.524 202.846 182.524 200C182.524 197.154 181.012 194.522 178.553 193.089L174.524 200ZM121 296L129 296L129 296L121 296ZM121 324H113C113 328.418 116.582 332 121 332V324ZM279 324V332C283.418 332 287 328.418 287 324H279ZM225.476 200L221.447 193.089C218.988 194.522 217.476 197.154 217.476 200C217.476 202.846 218.988 205.478 221.447 206.911L225.476 200ZM121 84H279V68H121V84ZM129 104V76H113V104H129ZM178.553 193.089C162.42 183.684 150.143 172.033 141.855 157.648C133.567 143.264 129 125.68 129 104L113 104C113 127.99 118.077 148.427 127.992 165.636C137.907 182.845 152.392 196.359 170.496 206.911L178.553 193.089ZM170.496 193.089C152.392 203.641 137.907 217.155 127.992 234.364C118.077 251.573 113 272.01 113 296L129 296C129 274.32 133.567 256.736 141.855 242.352C150.143 227.967 162.42 216.316 178.553 206.911L170.496 193.089ZM113 296V324H129V296H113ZM121 332H279V316H121V332ZM287 324V296H271V324H287ZM287 296C287 272.01 281.923 251.573 272.008 234.364C262.093 217.155 247.608 203.641 229.504 193.089L221.447 206.911C237.58 216.316 249.857 227.967 258.145 242.352C266.433 256.736 271 274.32 271 296H287ZM271 104C271 125.68 266.433 143.264 258.145 157.648C249.857 172.033 237.58 183.684 221.447 193.089L229.504 206.911C247.608 196.359 262.093 182.845 272.008 165.636C281.923 148.427 287 127.99 287 104H271ZM271 76V104H287V76H271Z" fill="white"/>
<rect x="105" y="316" width="190" height="24" fill="white"/>
<path d="M250 147C250 162 220 186 200 191C180 186 150 162 150 147H250Z" fill="white"/>
<path d="M259 310C259 299 220 261 200 256C180 261 141 299 141 310H259Z" fill="white"/>
<rect x="192" y="180" width="16" height="101" fill="white"/>
</g>
<defs>
<clipPath id="clip0_752_81">
<rect width="400" height="400" fill="white"/>
</clipPath>
</defs>
</svg>

    </mask>
</defs>
<rect fill="black" x="0" y="0" width="400" height="400" mask="url(#mymask1)" />
</svg>