<svg width="400" height="400" viewBox="0 0 400 400" fill="none" xmlns="http://www.w3.org/2000/svg">
<defs>
    <mask id="mymask1">
    // <svg width="400" height="400" viewBox="0 0 400 400" fill="none" xmlns="http://www.w3.org/2000/svg">
<g clip-path="url(#clip0_741_58)">
<rect width="400" height="400" fill="black"/>
<path d="M224.113 196.505L204.722 176.812C201.391 173.429 200.935 168.181 203.459 164.16C214.59 146.423 217.23 135.525 205.5 121C194.749 109.83 189 107.5 167.5 110.5C167.5 110.5 155.5 113.5 152 105C148.5 96.5 169 74.5 201 73.5C233 72.5 277.257 97.7589 305 133.5V148L310.623 146.044C314.221 144.793 318.218 145.694 320.93 148.369L345.258 172.359C349.238 176.283 349.228 182.707 345.238 186.62L308.203 222.928C304.434 226.623 298.443 226.753 294.518 223.225L268.993 200.285C265.063 196.753 264.559 190.773 267.842 186.633L273.5 179.5C260.478 178.198 252.732 183.301 238.158 196.773C234.156 200.473 227.937 200.389 224.113 196.505Z" fill="white"/>
<path d="M86.3307 341.96L58.7736 316.107C52.9194 310.615 52.8724 301.335 58.6707 295.784L167.286 191.8C172.713 186.604 181.273 186.619 186.683 191.833L208.515 212.876C214.045 218.206 214.248 226.996 208.971 232.576L106.081 341.369C100.783 346.971 91.9537 347.235 86.3307 341.96Z" fill="white"/>
</g>
<defs>
<clipPath id="clip0_741_58">
<rect width="400" height="400" fill="white"/>
</clipPath>
</defs>
</svg>

    </mask>
</defs>
<rect fill="black" x="0" y="0" width="400" height="400" mask="url(#mymask1)" />
</svg>