<svg width="400" height="400" viewBox="0 0 400 400" fill="none" xmlns="http://www.w3.org/2000/svg">
<defs>
    <mask id="mymask1">
    // <svg width="400" height="400" viewBox="0 0 400 400" fill="none" xmlns="http://www.w3.org/2000/svg">
<g clip-path="url(#clip0_737_45)">
<rect width="400" height="400" fill="black"/>
<path d="M100.594 345.709C100.594 345.709 135.5 262.5 158 230C180.5 197.5 224 155.5 224 155.5" stroke="white" stroke-width="16" stroke-linecap="round" stroke-linejoin="round"/>
<path d="M99.2044 241.5L111.906 264.5L92.5027 265.5C91.9298 290.209 96.7676 296.161 110.214 312.706L110.453 313C135.465 311.045 144.878 307.592 161.943 296.5L149.695 291.5L183.079 280L166.129 268.5L198.576 263C250.586 187.807 278.192 145.557 328.003 70C211.419 100.581 155.669 133.888 99.2044 241.5Z" stroke="white" stroke-width="13" stroke-linecap="round" stroke-linejoin="round"/>
</g>
<defs>
<clipPath id="clip0_737_45">
<rect width="400" height="400" fill="white"/>
</clipPath>
</defs>
</svg>

    </mask>
</defs>
<rect fill="black" x="0" y="0" width="400" height="400" mask="url(#mymask1)" />
</svg>