<svg width="400" height="400" viewBox="0 0 400 400" fill="none" xmlns="http://www.w3.org/2000/svg">
<defs>
    <mask id="mymask1">
    // <svg width="400" height="400" viewBox="0 0 400 400" fill="none" xmlns="http://www.w3.org/2000/svg">
<g clip-path="url(#clip0_749_69)">
<rect width="400" height="400" fill="black"/>
<path d="M318.5 246.5C317.303 306.368 258.758 338.359 209.327 354.394C209.114 354.463 208.889 354.459 208.679 354.382L208.542 354.331C176.063 342.34 129.81 325.263 106.5 275C90.5 240.5 113.192 140.462 187 156C225 164 247 213 249.5 275C272.732 222.244 250.987 176.515 225.534 159.584C224.735 159.052 225.011 157.782 225.967 157.702C264.429 154.45 319.962 173.403 318.5 246.5Z" fill="white"/>
<path d="M126 130.5C98.8618 118.094 85.1882 84.3325 81.3373 67.5466C81.1729 66.8302 81.8276 66.2026 82.5437 66.368C112.488 73.2835 141.225 67.0675 166 71C190.379 74.8696 199.877 100.576 201.828 114.169C201.923 114.832 201.328 115.379 200.669 115.259C170.003 109.692 151.316 104.562 117.5 94C144.821 112.058 162.119 119.54 196.079 124.578C197.024 124.719 197.253 125.955 196.399 126.384C182.307 133.465 152.249 142.5 126 130.5Z" fill="white"/>
<path d="M219 137.5C219.667 128.833 224 116.5 233 103C242 89.5 257.333 76 258.5 75" stroke="white" stroke-width="21" stroke-linecap="round"/>
</g>
<defs>
<clipPath id="clip0_749_69">
<rect width="400" height="400" fill="white"/>
</clipPath>
</defs>
</svg>

    </mask>
</defs>
<rect fill="black" x="0" y="0" width="400" height="400" mask="url(#mymask1)" />
</svg>